<svg xmlns="http://www.w3.org/2000/svg" viewBox="0 0 64 66" width="64" height="66" role="img" aria-label="Lid — wraps around the tray">
  <path d="M18 43.1 L32 50.1 L32 60 L18 53 Z" fill="var(--tt-icon-face-left, #ede7e2)" stroke="var(--tt-icon-line, #1d1b18)" stroke-width="1.3" stroke-linejoin="round" stroke-linecap="round"></path>
  <path d="M46 43.1 L32 50.1 L32 60 L46 53 Z" fill="var(--tt-icon-face-right, #e7e1dc)" stroke="var(--tt-icon-line, #1d1b18)" stroke-width="1.3" stroke-linejoin="round" stroke-linecap="round"></path>
  <path d="M32 36.1 L46 43.1 L32 50.1 L18 43.1 Z" fill="var(--tt-icon-face-top, #f9f2ed)" stroke="var(--tt-icon-line, #1d1b18)" stroke-width="1.3" stroke-linejoin="round" stroke-linecap="round"></path>
  <path d="M32 38.9 L40.4 43.1 L32 47.3 L23.6 43.1 Z" fill="var(--tt-icon-face-inner, #dcc1b8)" stroke="var(--tt-icon-line, #1d1b18)" stroke-width="1.1" stroke-linejoin="round" stroke-linecap="round"></path>
  <path d="M50.2 16.7 L32 25.8 L32 35.7 L50.2 26.6 Z" fill="var(--tt-icon-closure-fill, rgba(123,84,85,.1))" stroke="var(--tt-icon-closure, #7b5455)" stroke-width="1.5" stroke-linejoin="round" stroke-linecap="round"></path>
  <path d="M13.8 16.7 L32 25.8 L32 35.7 L13.8 26.6 Z" fill="var(--tt-icon-closure-fill, rgba(123,84,85,.1))" stroke="var(--tt-icon-closure, #7b5455)" stroke-width="1.5" stroke-linejoin="round" stroke-linecap="round"></path>
  <path d="M32 7.6 L50.2 16.7 L32 25.8 L13.8 16.7 Z" fill="var(--tt-icon-closure-fill-strong, rgba(123,84,85,.18))" stroke="var(--tt-icon-closure, #7b5455)" stroke-width="1.5" stroke-linejoin="round" stroke-linecap="round"></path>
  <path d="M32 21.65 L32 43.1" fill="none" stroke="var(--tt-icon-halo, #ffffff)" stroke-width="4.4" stroke-linejoin="round" stroke-linecap="round"></path>
  <path d="M29 38.6 L32 43.1 L35 38.6" fill="none" stroke="var(--tt-icon-halo, #ffffff)" stroke-width="4.4" stroke-linejoin="round" stroke-linecap="round"></path>
  <path d="M32 21.65 L32 43.1" fill="none" stroke="var(--tt-icon-motion, #99411e)" stroke-width="1.9" stroke-linejoin="round" stroke-linecap="round"></path>
  <path d="M29 38.6 L32 43.1 L35 38.6" fill="none" stroke="var(--tt-icon-motion, #99411e)" stroke-width="1.9" stroke-linejoin="round" stroke-linecap="round"></path>
</svg>